# xmcd
#
# Track frame offsets: 
#        150
#        24068
#        45935
#        68079
#        94441
#        113005
#        140482
#        163406
#        182204
#        197644
#        219422
#        242120
#        262783
#        284999
#        308514
#
# Disc length: 4437 seconds
#
# Revision: 0
# Processed by: cddbd v1.5.2PL0 Copyright (c) Steve Scherf et al.
# Submitted via: ExactAudioCopy v1.0b3
#
DISCID=d411530f
DTITLE=The Smoking Madronas - Down By The Beach
DYEAR=1900
DGENRE=
TTITLE0=Down By The Beach
TTITLE1=Restless Heart
TTITLE2=Standing In Line
TTITLE3=Touch Me Baby
TTITLE4=What Beauty Could Be
TTITLE5=The Diver
TTITLE6=Sugar Plum Fairy
TTITLE7=She
TTITLE8=The Fool
TTITLE9=Looking For Some Shelter
TTITLE10=Lord Knows
TTITLE11=How The Song Goes
TTITLE12=Dancing In My Head
TTITLE13=Man In The Moon
TTITLE14=Lovin' Appetite
EXTD=
EXTT0=
EXTT1=
EXTT2=
EXTT3=
EXTT4=
EXTT5=
EXTT6=
EXTT7=
EXTT8=
EXTT9=
EXTT10=
EXTT11=
EXTT12=
EXTT13=
EXTT14=
PLAYORDER=
